<svg width="12" height="12" viewBox="0 0 12 12" fill="none" xmlns="http://www.w3.org/2000/svg">
<path fill-rule="evenodd" clip-rule="evenodd" d="M10.2776 11.6904C10.6682 12.081 11.2856 12.066 11.6568 11.6571C12.028 11.2481 12.0123 10.6 11.6218 10.2095L7.41254 6.00021L11.6902 1.72256C12.0807 1.33203 12.0658 0.714546 11.6568 0.343359C11.2479 -0.0278278 10.5998 -0.0121519 10.2093 0.378373L5.99998 4.58765L1.72232 0.309999C1.3318 -0.0805247 0.71431 -0.0655891 0.343123 0.34336C-0.0280637 0.752307 -0.0123877 1.40041 0.378137 1.79093L4.58742 6.00021L0.309763 10.2779C-0.0807611 10.6684 -0.0658258 11.2859 0.343123 11.6571C0.752071 12.0283 1.40017 12.0126 1.7907 11.6221L5.99998 7.41277L10.2776 11.6904Z" fill="black"/>
</svg>
