<svg width="17" height="17" viewBox="0 0 17 17" fill="none" xmlns="http://www.w3.org/2000/svg">
<path fill-rule="evenodd" clip-rule="evenodd" d="M15.0486 8.99904C15.6008 8.99904 16.0269 8.55185 16.0002 8.00021C15.9735 7.44857 15.5041 7.00138 14.9519 7.00138L8.99904 7.00138V0.951865C8.99904 0.399581 8.55185 -0.0264881 8.00021 0.000212913C7.44857 0.0269139 7.00138 0.496274 7.00138 1.04856V7.00138H0.951866C0.399582 7.00138 -0.0264884 7.44857 0.000212945 8.00021C0.0269143 8.55185 0.496275 8.99904 1.04856 8.99904H7.00138L7.00138 15.0486C7.00138 15.6008 7.44857 16.0269 8.00021 16.0002C8.55185 15.9735 8.99904 15.5041 8.99904 14.9519V8.99904H15.0486Z" fill="#fff"/>
</svg>
